HIERARCHY
ROOT Hips
{
	OFFSET	0.00	0.00	0.00
	CHANNELS 6 Xposition Yposition Zposition Zrotation Xrotation Yrotation
	JOINT LeftUpLeg
	{
		OFFSET	 0.126116	-0.014019	-0.065224
		CHANNELS 3 Zrotation Xrotation Yrotation
		JOINT LeftLeg
		{
			OFFSET	 0.000000	 0.000000	 0.569914
			CHANNELS 3 Zrotation Xrotation Yrotation
			JOINT LeftFoot
			{
				OFFSET	 0.000000	 0.000000	 0.544423
				CHANNELS 3 Zrotation Xrotation Yrotation
				JOINT LeftToeBase
				{
					OFFSET	 0.000000	 0.000000	 0.207117
					CHANNELS 3 Zrotation Xrotation Yrotation
					End Site
					{
						OFFSET	 0.000000	 0.000000	 0.207117
					}
				}
			}
		}
	}
	JOINT RightUpLeg
	{
		OFFSET	-0.124023	-0.008373	-0.065224
		CHANNELS 3 Zrotation Xrotation Yrotation
		JOINT RightLeg
		{
			OFFSET	 0.000000	 0.000000	 0.570047
			CHANNELS 3 Zrotation Xrotation Yrotation
			JOINT RightFoot
			{
				OFFSET	 0.000000	 0.000000	 0.544354
				CHANNELS 3 Zrotation Xrotation Yrotation
				JOINT RightToeBase
				{
					OFFSET	 0.000000	 0.000000	 0.207540
					CHANNELS 3 Zrotation Xrotation Yrotation
					End Site
					{
						OFFSET	 0.000000	 0.000000	 0.207540
					}
				}
			}
		}
	}
	JOINT Spine
	{
		OFFSET	 0.000184	-0.007763	 0.117403
		CHANNELS 3 Zrotation Xrotation Yrotation
		JOINT Spine1
		{
			OFFSET	 0.000000	 0.000000	 0.137269
			CHANNELS 3 Zrotation Xrotation Yrotation
			JOINT Spine2
			{
				OFFSET	 0.000000	 0.000000	 0.156879
				CHANNELS 3 Zrotation Xrotation Yrotation
				JOINT LeftShoulder
				{
					OFFSET	 0.080501	-0.002496	 0.160144
					CHANNELS 3 Zrotation Xrotation Yrotation
					JOINT LeftArm
					{
						OFFSET	 0.000000	 0.000000	 0.164363
						CHANNELS 3 Zrotation Xrotation Yrotation
						JOINT LeftForeArm
						{
							OFFSET	 0.000000	 0.000000	 0.364576
							CHANNELS 3 Zrotation Xrotation Yrotation
							JOINT LeftHand
							{
								OFFSET	 0.000000	 0.000000	 0.360812
								CHANNELS 3 Zrotation Xrotation Yrotation
								JOINT LeftHandIndex1
								{
									OFFSET	 0.000000	 0.000000	 0.086006
									CHANNELS 3 Zrotation Xrotation Yrotation
									JOINT LeftHandIndex2
									{
										OFFSET	 0.000000	 0.000000	 0.047236
										CHANNELS 3 Zrotation Xrotation Yrotation
										JOINT LeftHandIndex3
										{
											OFFSET	-0.004284	-0.000551	 0.038166
											CHANNELS 3 Zrotation Xrotation Yrotation
											End Site
											{
												OFFSET	-0.004284	-0.000551	 0.038166
											}
										}
									}
								}
							}
						}
					}
				}
				JOINT Neck
				{
					OFFSET	 0.000000	 0.000000	 0.176489
					CHANNELS 3 Zrotation Xrotation Yrotation
					JOINT Head
					{
						OFFSET	 0.000000	-0.001747	 0.077940
						CHANNELS 3 Zrotation Xrotation Yrotation
						End Site
						{
							OFFSET	 0.000000	-0.001747	 0.077940
						}
					}
				}
				JOINT RightShoulder
				{
					OFFSET	-0.080363	 0.000306	 0.159706
					CHANNELS 3 Zrotation Xrotation Yrotation
					JOINT RightArm
					{
						OFFSET	 0.000000	 0.000000	 0.164196
						CHANNELS 3 Zrotation Xrotation Yrotation
						JOINT RightForeArm
						{
							OFFSET	 0.000000	 0.000000	 0.365611
							CHANNELS 3 Zrotation Xrotation Yrotation
							JOINT RightHand
							{
								OFFSET	 0.000000	 0.000000	 0.360648
								CHANNELS 3 Zrotation Xrotation Yrotation
								JOINT RightHandIndex1
								{
									OFFSET	 0.000000	 0.000000	 0.069977
									CHANNELS 3 Zrotation Xrotation Yrotation
									JOINT RightHandIndex2
									{
										OFFSET	 0.000000	 0.000000	 0.052305
										CHANNELS 3 Zrotation Xrotation Yrotation
										JOINT RightHandIndex3
										{
											OFFSET	 0.009002	-0.000782	 0.042196
											CHANNELS 3 Zrotation Xrotation Yrotation
											End Site
											{
												OFFSET	 0.009002	-0.000782	 0.042196
											}
										}
									}
								}
							}
						}
					}
				}
			}
		}
	}
}
MOTION
Frames:    7
Frame Time: 0.03333334
-6.518497	-19.189040	-0.107382	-46.643560	 2.512947	 0.379186	 2.409709	-34.439250	 172.542300	-5.162574	-66.468990	-5.393031	 176.382400	 87.524800	-178.951400	-2.341021	 35.603250	-0.163477	 0.285712	-35.902190	-177.555400	 1.467322	-70.351480	 4.337456	-177.198400	 85.941020	 179.025700	 2.405952	 20.559340	-0.161981	 21.181880	 13.685330	 2.291072	-11.386950	 6.813073	-1.454887	-13.121000	 3.490089	-0.470878	-127.761000	 89.447870	-140.653500	 47.425970	 61.159000	-76.222630	-27.542570	 7.410669	-33.665640	-35.227770	 1.378294	-5.651114	-3.812334	 37.924440	-2.927599	-2.450526	 36.184240	 0.754587	-1.378229	 35.397820	-2.634230	 1.749153	 2.297207	-3.079890	-2.643916	 6.601371	 4.070925	 94.191190	 86.004140	 171.108500	-54.032450	 70.829580	 73.119490	 7.500265	-1.801723	 37.424120	 8.584796	 3.070353	 9.591722	 6.437017	 35.671460	-0.771858	 2.830251	 35.756010	-7.813440	-2.350882	 35.473990	 5.254307
-6.512004	-19.189410	-0.086424	-48.357190	 5.167552	-0.204846	 3.156900	-35.502220	 173.285200	-4.268895	-63.439730	-3.804049	 172.146500	 88.828470	-174.243900	-2.359396	 33.171680	-0.105654	 1.384605	-37.451760	-177.171000	-0.054774	-67.264400	 3.553814	-174.231900	 87.436090	 175.968700	 2.406842	 19.625420	-0.180532	 13.983020	 13.729570	 2.396269	-11.208210	 6.373739	-1.337247	-12.744270	 2.971190	-0.515199	-120.099800	 89.332070	-148.351700	 44.211060	 60.868280	-74.543020	-23.797090	 3.130099	-27.887740	-31.364360	 0.964308	-5.754961	-3.812334	 37.924440	-2.927599	-2.450526	 36.184240	 0.754587	-1.378229	 35.397820	-2.634230	 2.076258	 1.990281	-2.900467	-2.335402	 6.219375	 5.039101	 94.437620	 86.068560	 170.727200	-53.915180	 71.686440	 72.309940	 3.636348	-5.853361	 31.104930	 4.668631	 2.414042	 9.774938	 6.437017	 35.671460	-0.771858	 2.830251	 35.756010	-7.813440	-2.350882	 35.473990	 5.254307
-6.508342	-19.191040	-0.070757	-49.684460	 6.924917	-0.658145	 4.158492	-35.720660	 173.972200	-4.006486	-60.843300	-2.712358	 129.696000	 89.788780	-131.385700	-2.368159	 31.819080	-0.074559	 1.878845	-38.271630	-176.663000	-2.010102	-64.876160	 1.980023	-169.112800	 88.612240	 170.256400	 2.407107	 19.266320	-0.187628	 4.863330	 14.228880	 2.649359	-11.120690	 6.413301	-1.148590	-12.529400	 2.781600	-0.527245	-118.132000	 89.305070	-150.394700	 41.791980	 60.930870	-74.504860	-18.569410	-0.643137	-21.136500	-25.988500	 0.135170	-6.012402	-3.812334	 37.924440	-2.927599	-2.450526	 36.184240	 0.754587	-1.378229	 35.397820	-2.634230	 2.264222	 1.880252	-2.759683	-2.132734	 6.037087	 5.301994	 94.611570	 86.131380	 170.495400	-53.143860	 72.730640	 70.802150	-1.964844	-9.156465	 23.251540	-0.390708	 1.297050	 10.096860	 6.437017	 35.671460	-0.771858	 2.830251	 35.756010	-7.813440	-2.350882	 35.473990	 5.254307
-6.507625	-19.191350	-0.059173	-49.543980	 8.261658	-0.688901	 4.470675	-36.214690	 174.146100	-3.299012	-58.910850	-1.778192	 20.714820	 89.551510	-21.956840	-2.368687	 31.733300	-0.072610	 1.224431	-38.564010	-176.572800	-2.185830	-62.785180	 1.252844	-160.003700	 89.234340	 160.850300	 2.406694	 19.813590	-0.176797	-6.409863	 14.461210	 2.543442	-11.473210	 6.675538	-1.296237	-12.602980	 2.907993	-0.516419	-123.541000	 89.448580	-145.218700	 40.797630	 61.202590	-75.873670	-12.574380	-3.136772	-16.873970	-20.359390	-1.209432	-6.347793	-3.812334	 37.924440	-2.927599	-2.450526	 36.184240	 0.754587	-1.378229	 35.397820	-2.634230	 2.075757	 2.033430	-2.796641	-2.018054	 6.006513	 5.000323	 94.540570	 86.030540	 170.454300	-50.745140	 74.320830	 67.287510	-8.858167	-11.094230	 17.060290	-6.430608	-0.405963	 10.480050	 6.437017	 35.671460	-0.771858	 2.830251	 35.756010	-7.813440	-2.350882	 35.473990	 5.254307
-6.510389	-19.192850	-0.052619	-49.007280	 8.911682	-0.664001	 4.363896	-36.275810	 174.101800	-2.653567	-57.961780	-1.263975	 12.713250	 89.273410	-13.670310	-2.372291	 31.121980	-0.058802	 0.809325	-38.364110	-176.758900	-1.127856	-61.739380	 1.868751	-155.045200	 89.388340	 156.251400	 2.404605	 21.571940	-0.141719	-16.120560	 14.532950	 2.553591	-11.774950	 6.848530	-1.517025	-12.726460	 3.043139	-0.506450	-147.953700	 89.657940	-120.943900	 41.651140	 61.034080	-77.688050	-7.245087	-5.647242	-22.267760	-15.887620	-2.672325	-6.570609	-3.812334	 37.924440	-2.927599	-2.450526	 36.184240	 0.754587	-1.378229	 35.397820	-2.634230	 1.853577	 1.984194	-3.007383	-1.984531	 6.055034	 4.571040	 94.213170	 85.783280	 170.678000	-48.044730	 75.709650	 63.530270	-14.445670	-12.986500	 20.042210	-11.613650	-2.226978	 10.731970	 6.437017	 35.671460	-0.771858	 2.830251	 35.756010	-7.813440	-2.350882	 35.473990	 5.254307
-6.515998	-19.195980	-0.047964	-48.310890	 9.354813	-0.750354	 4.132761	-36.158340	 174.192500	-2.211282	-57.123070	-1.030826	 9.612746	 89.024420	-10.442970	-2.375029	 30.634890	-0.047896	 0.835191	-38.057520	-176.873000	 0.068530	-61.037640	 2.923848	-156.449900	 89.365720	 158.274700	 2.399347	 24.154450	-0.089231	-26.866040	 14.273400	 2.750461	-12.025050	 6.886053	-1.628255	-12.829300	 3.093270	-0.504944	 165.571800	 89.716070	-74.601580	 44.317820	 60.445900	-80.427270	-1.480922	-10.019700	-29.218220	-10.940980	-4.747635	-6.638577	-3.812334	 37.924440	-2.927599	-2.450526	 36.184240	 0.754587	-1.378229	 35.397820	-2.634230	 1.644693	 1.900687	-3.215614	-1.940351	 5.915661	 4.092901	 93.936180	 85.568360	 170.885900	-46.312930	 76.665950	 60.481710	-20.463430	-16.331530	 23.947530	-17.168620	-4.755867	 10.825710	 6.437017	 35.671460	-0.771858	 2.830251	 35.756010	-7.813440	-2.350882	 35.473990	 5.254307
-6.522629	-19.200280	-0.045602	-47.608280	 9.473319	-0.769026	 3.940019	-35.726130	 174.257700	-1.928107	-56.547000	-0.925610	 9.132456	 89.021610	-9.913043	-2.374137	 30.796800	-0.051507	 0.809822	-37.399070	-176.957500	 0.626745	-60.619370	 3.398143	-166.069300	 88.993420	 168.207800	 2.398978	 24.298080	-0.086284	-35.734200	 13.993450	 2.848316	-12.163260	 6.866778	-1.661713	-12.904640	 3.093039	-0.507961	 142.558800	 89.667210	-51.688550	 46.939590	 59.676990	-82.917470	 3.635821	-15.207020	-34.742400	-5.670247	-7.062424	-6.378646	-3.812334	 37.924440	-2.927599	-2.450526	 36.184240	 0.754587	-1.378229	 35.397820	-2.634230	 1.518717	 1.809623	-3.463064	-1.963562	 5.860911	 4.051874	 93.802490	 85.487850	 171.037600	-46.374230	 76.950920	 59.504800	-26.044710	-20.677210	 27.578930	-22.613780	-7.500782	 10.560710	 6.437017	 35.671460	-0.771858	 2.830251	 35.756010	-7.813440	-2.350882	 35.473990	 5.254307
